<svg data-name="Layer 1" xmlns="http://www.w3.org/2000/svg" viewBox="0 0 51.37 53.57">
  <path d="M.1 43.1q.23-.37.75 0a49.75 49.75 0 0 0 25.41 6.77 50.26 50.26 0 0 0 18.07-3.41l.68-.28.63-.28a.83.83 0 0 1 1.1.28q.4.56-.26 1-.84.61-2.15 1.4a35 35 0 0 1-9 3.69A37.63 37.63 0 0 1 .26 43.86a.64.64 0 0 1-.28-.47.5.5 0 0 1 .12-.29zm7.85-13.31a12.25 12.25 0 0 1 2.06-7.16 12.73 12.73 0 0 1 5.64-4.49 30.53 30.53 0 0 1 8.07-2q1.64-.18 5.34-.49v-1q0-3.88-.85-5.22a4.55 4.55 0 0 0-4-1.82h-.49a6.64 6.64 0 0 0-3.46 1.27 5 5 0 0 0-1.88 3 1.54 1.54 0 0 1-1.21 1.4l-7-.85q-1-.24-1-1.09a1.78 1.78 0 0 1 .06-.42 11.63 11.63 0 0 1 5.07-8A19 19 0 0 1 23.74.01h1.49q6.92 0 10.8 3.58a11.56 11.56 0 0 1 1.12 1.3 11.76 11.76 0 0 1 .82 1.24 6.37 6.37 0 0 1 .55 1.58q.24 1 .36 1.43a8.67 8.67 0 0 1 .18 1.7q.06 1.3.06 1.55v14.67a8.7 8.7 0 0 0 .46 2.88 7.51 7.51 0 0 0 .88 1.88l1.4 1.85a1.82 1.82 0 0 1 .36 1 1 1 0 0 1-.49.85l-5.46 4.73a1.69 1.69 0 0 1-1.76.12q-.85-.73-1.49-1.4l-.91-1a13.55 13.55 0 0 1-.88-1.18q-.61-.88-.85-1.18a14.9 14.9 0 0 1-6.68 4.61 18.32 18.32 0 0 1-5.1.61 10.63 10.63 0 0 1-7.68-2.88q-2.97-2.88-2.97-8.16zm10.44-1.21a5.75 5.75 0 0 0 1.18 3.79 3.93 3.93 0 0 0 3.19 1.43 3.1 3.1 0 0 0 .52-.06 3.1 3.1 0 0 1 .46-.06 6.17 6.17 0 0 0 3.94-3.28 9.5 9.5 0 0 0 1-2.52 11.53 11.53 0 0 0 .36-2.22v-4.3a22.11 22.11 0 0 0-5.34.49q-5.31 1.51-5.31 6.73zM41.8 43.9a1.46 1.46 0 0 1 .28-.37 7.33 7.33 0 0 1 2.24-1.07 15.23 15.23 0 0 1 3.46-.51 2.79 2.79 0 0 1 .89 0q2.1.19 2.52.7a1.53 1.53 0 0 1 .19.84v.33a10.65 10.65 0 0 1-.89 3.85 9 9 0 0 1-2.48 3.57.71.71 0 0 1-.42.19.41.41 0 0 1-.19 0q-.28-.14-.14-.51a17.82 17.82 0 0 0 1.73-5.65 1.2 1.2 0 0 0-.19-.75q-.47-.56-2.62-.56-.79 0-1.87.09l-2.15.28a.54.54 0 0 1-.37-.09.15.15 0 0 1 0-.19.36.36 0 0 1 .01-.16z"/>
</svg>
